<?xml version="1.0" encoding="utf-8"?>
<!-- Generator: Adobe Illustrator 19.0.0, SVG Export Plug-In . SVG Version: 6.00 Build 0)  -->
<svg version="1.1" id="Layer_1" xmlns="http://www.w3.org/2000/svg" xmlns:xlink="http://www.w3.org/1999/xlink" x="0px" y="0px"
	 viewBox="-245 338.2 120.8 117.8" enable-background="new -245 338.2 120.8 117.8" xml:space="preserve">
<g>
	<path fill="#191717" d="M-184.6,338.2c-33.4,0-60.4,27-60.4,60.4c0,26.7,17.3,49.3,41.3,57.3c3,0.6,4.1-1.3,4.1-2.9
		c0-1.4-0.1-6.2-0.1-11.2c-16.8,3.6-20.3-7.2-20.3-7.2c-2.7-7-6.7-8.8-6.7-8.8c-5.5-3.7,0.4-3.7,0.4-3.7c6.1,0.4,9.3,6.2,9.3,6.2
		c5.4,9.2,14.1,6.6,17.6,5c0.5-3.9,2.1-6.6,3.8-8.1c-13.4-1.4-27.5-6.6-27.5-29.8c0-6.6,2.4-12,6.2-16.2c-0.6-1.5-2.7-7.7,0.6-16
		c0,0,5.1-1.6,16.6,6.2c4.8-1.3,10-2,15.1-2c5.1,0,10.3,0.7,15.1,2c11.5-7.8,16.6-6.2,16.6-6.2c3.3,8.3,1.2,14.5,0.6,16
		c3.9,4.2,6.2,9.6,6.2,16.2c0,23.2-14.1,28.3-27.6,29.8c2.2,1.9,4.1,5.5,4.1,11.2c0,8.1-0.1,14.6-0.1,16.6c0,1.6,1.1,3.5,4.1,2.9
		c24-8,41.3-30.6,41.3-57.3C-124.2,365.2-151.3,338.2-184.6,338.2z"/>
	<path fill="#191717" d="M-222.1,424.9c-0.1,0.3-0.6,0.4-1,0.2c-0.4-0.2-0.7-0.6-0.5-0.9c0.1-0.3,0.6-0.4,1-0.2
		C-222.2,424.2-222,424.6-222.1,424.9L-222.1,424.9z"/>
	<path fill="#191717" d="M-219.7,427.6c-0.3,0.3-0.9,0.1-1.2-0.3c-0.4-0.4-0.5-1-0.2-1.3c0.3-0.3,0.8-0.1,1.2,0.3
		C-219.5,426.8-219.4,427.4-219.7,427.6L-219.7,427.6z"/>
	<path fill="#191717" d="M-217.3,431.1c-0.4,0.3-1,0-1.3-0.5c-0.4-0.5-0.4-1.2,0-1.4c0.4-0.3,1,0,1.3,0.5
		C-216.9,430.2-216.9,430.8-217.3,431.1L-217.3,431.1z"/>
	<path fill="#191717" d="M-214,434.5c-0.3,0.4-1,0.3-1.6-0.2c-0.5-0.5-0.7-1.2-0.3-1.5c0.3-0.4,1-0.3,1.6,0.2
		C-213.8,433.4-213.7,434.1-214,434.5L-214,434.5z"/>
	<path fill="#191717" d="M-209.5,436.4c-0.1,0.5-0.8,0.7-1.5,0.5c-0.7-0.2-1.1-0.8-1-1.2c0.1-0.5,0.8-0.7,1.5-0.5
		S-209.4,435.9-209.5,436.4L-209.5,436.4z"/>
	<path fill="#191717" d="M-204.6,436.8c0,0.5-0.6,0.9-1.3,0.9c-0.7,0-1.3-0.4-1.3-0.9s0.6-0.9,1.3-0.9
		C-205.2,435.9-204.6,436.3-204.6,436.8L-204.6,436.8z"/>
	<path fill="#191717" d="M-200,436c0.1,0.5-0.4,1-1.1,1.1c-0.7,0.1-1.3-0.2-1.4-0.7s0.4-1,1.1-1.1C-200.7,435.2-200.1,435.5-200,436
		L-200,436z"/>
</g>
</svg>
