<?xml version="1.0" encoding="utf-8"?><!DOCTYPE svg PUBLIC "-//W3C//DTD SVG 1.1//EN" "http://www.w3.org/Graphics/SVG/1.1/DTD/svg11.dtd"><svg version="1.1" id="linkedin" xmlns="http://www.w3.org/2000/svg" xmlns:xlink="http://www.w3.org/1999/xlink" x="0px" y="0px"
	 viewBox="0 0 800 800" enable-background="new 0 0 800 800" xml:space="preserve"><path d="M400,16C187.9,16,16,187.9,16,400s171.9,384,384,384s384-171.9,384-384S612.1,16,400,16z M596,530.2
	c0,36.2-29.6,65.8-65.8,65.8H269.8c-36.2,0-65.8-29.6-65.8-65.8V269.8c0-36.2,29.6-65.8,65.8-65.8h260.3c36.2,0,65.8,29.6,65.8,65.8
	V530.2z"/><rect x="302" y="351" width="49" height="171.5"/><circle cx="326.5" cy="302" r="24.5"/><path d="M467.4,351c-17.3,0-32.8,16.5-42.9,30.4V351h-49v171.5h49v-98c0-13.5,11-24.5,24.5-24.5
	c13.5,0,24.5,11,24.5,24.5v98h49l0-110.3C522.5,378.4,497.8,351,467.4,351z"/><rect x="302" y="351" width="49" height="171.5"/><circle cx="326.5" cy="302" r="24.5"/><path d="M467.4,351c-17.3,0-32.8,16.5-42.9,30.4V351h-49v171.5h49v-98c0-13.5,11-24.5,24.5-24.5
	c13.5,0,24.5,11,24.5,24.5v98h49l0-110.3C522.5,378.4,497.8,351,467.4,351z"/></svg>
