<?xml version="1.0" encoding="utf-8"?><!DOCTYPE svg PUBLIC "-//W3C//DTD SVG 1.1//EN" "http://www.w3.org/Graphics/SVG/1.1/DTD/svg11.dtd"><svg version="1.1" id="twitter" xmlns="http://www.w3.org/2000/svg" xmlns:xlink="http://www.w3.org/1999/xlink" x="0px" y="0px" viewBox="0 0 800 800" enable-background="new 0 0 800 800" xml:space="preserve"><path d="M400,16C187.9,16,16,187.9,16,400s171.9,384,384,384s384-171.9,384-384S612.1,16,400,16z M555.9,319.6
	c0.2,3.5,0.2,7,0.2,10.5c0,106.9-80.9,230.2-228.8,230.2c-45.4,0-87.7-13.4-123.3-36.3c6.3,0.7,12.7,1.1,19.2,1.1
	c37.7,0,72.4-12.9,99.9-34.6c-35.2-0.7-64.9-24-75.1-56.2c4.9,0.9,9.9,1.5,15.1,1.5c7.3,0,14.4-1,21.2-2.8
	c-36.8-7.4-64.5-40.1-64.5-79.3c0-0.3,0-0.7,0-1c10.8,6.1,23.2,9.7,36.4,10.1c-21.6-14.5-35.8-39.3-35.8-67.3
	c0-14.8,4-28.7,10.9-40.7c39.7,48.9,98.9,81.1,165.8,84.5c-1.4-5.9-2.1-12.1-2.1-18.4c0-44.7,36-80.9,80.4-80.9
	c23.1,0,44,9.8,58.7,25.5c18.3-3.6,35.5-10.4,51.1-19.6c-6,18.9-18.8,34.7-35.4,44.8c16.3-2,31.8-6.3,46.2-12.7
	C585.2,293.9,571.6,308.2,555.9,319.6z"/></svg>
