<?xml version="1.0" encoding="UTF-8"?><!DOCTYPE svg PUBLIC "-//W3C//DTD SVG 1.1//EN" "http://www.w3.org/Graphics/SVG/1.1/DTD/svg11.dtd"><svg xmlns="http://www.w3.org/2000/svg"><symbol id="email" viewBox="0 0 560 560"><path d="M280.002 250.79L560 85H.004"/><path d="M280 289.14L0 123.184V453.5c0 12.15 9.85 22 22 22h516c12.15 0 22-9.85 22-22V123.186L280 289.14z"/></symbol><symbol id="github" viewBox="-245 338.2 120.8 117.8"><g><path d="M-184.6 338.2c-33.4 0-60.4 27-60.4 60.4 0 26.7 17.3 49.3 41.3 57.3 3 .6 4.1-1.3 4.1-2.9 0-1.4-.1-6.2-.1-11.2-16.8 3.6-20.3-7.2-20.3-7.2-2.7-7-6.7-8.8-6.7-8.8-5.5-3.7.4-3.7.4-3.7 6.1.4 9.3 6.2 9.3 6.2 5.4 9.2 14.1 6.6 17.6 5 .5-3.9 2.1-6.6 3.8-8.1-13.4-1.4-27.5-6.6-27.5-29.8 0-6.6 2.4-12 6.2-16.2-.6-1.5-2.7-7.7.6-16 0 0 5.1-1.6 16.6 6.2 4.8-1.3 10-2 15.1-2s10.3.7 15.1 2c11.5-7.8 16.6-6.2 16.6-6.2 3.3 8.3 1.2 14.5.6 16 3.9 4.2 6.2 9.6 6.2 16.2 0 23.2-14.1 28.3-27.6 29.8 2.2 1.9 4.1 5.5 4.1 11.2 0 8.1-.1 14.6-.1 16.6 0 1.6 1.1 3.5 4.1 2.9 24-8 41.3-30.6 41.3-57.3.1-33.4-27-60.4-60.3-60.4z"/><path d="M-222.1 424.9c-.1.3-.6.4-1 .2s-.7-.6-.5-.9c.1-.3.6-.4 1-.2s.6.6.5.9zM-219.7 427.6c-.3.3-.9.1-1.2-.3-.4-.4-.5-1-.2-1.3.3-.3.8-.1 1.2.3.4.5.5 1.1.2 1.3zM-217.3 431.1c-.4.3-1 0-1.3-.5-.4-.5-.4-1.2 0-1.4.4-.3 1 0 1.3.5.4.5.4 1.1 0 1.4zM-214 434.5c-.3.4-1 .3-1.6-.2-.5-.5-.7-1.2-.3-1.5.3-.4 1-.3 1.6.2.5.4.6 1.1.3 1.5zM-209.5 436.4c-.1.5-.8.7-1.5.5-.7-.2-1.1-.8-1-1.2.1-.5.8-.7 1.5-.5s1.1.7 1 1.2zM-204.6 436.8c0 .5-.6.9-1.3.9-.7 0-1.3-.4-1.3-.9s.6-.9 1.3-.9c.7 0 1.3.4 1.3.9zM-200 436c.1.5-.4 1-1.1 1.1-.7.1-1.3-.2-1.4-.7s.4-1 1.1-1.1c.7-.1 1.3.2 1.4.7z"/></g></symbol><symbol id="linkedin" viewBox="0 0 800 800"><path d="M400 16C187.9 16 16 187.9 16 400s171.9 384 384 384 384-171.9 384-384S612.1 16 400 16zm196 514.2c0 36.2-29.6 65.8-65.8 65.8H269.8c-36.2 0-65.8-29.6-65.8-65.8V269.8c0-36.2 29.6-65.8 65.8-65.8h260.3c36.2 0 65.8 29.6 65.8 65.8v260.4z"/><path d="M302 351h49v171.5h-49z"/><circle cx="326.5" cy="302" r="24.5"/><path d="M467.4 351c-17.3 0-32.8 16.5-42.9 30.4V351h-49v171.5h49v-98c0-13.5 11-24.5 24.5-24.5s24.5 11 24.5 24.5v98h49V412.2c0-33.8-24.7-61.2-55.1-61.2zM302 351h49v171.5h-49z"/><circle cx="326.5" cy="302" r="24.5"/><path d="M467.4 351c-17.3 0-32.8 16.5-42.9 30.4V351h-49v171.5h49v-98c0-13.5 11-24.5 24.5-24.5s24.5 11 24.5 24.5v98h49V412.2c0-33.8-24.7-61.2-55.1-61.2z"/></symbol><symbol id="twitter" viewBox="0 0 800 800"><path d="M400 16C187.9 16 16 187.9 16 400s171.9 384 384 384 384-171.9 384-384S612.1 16 400 16zm155.9 303.6c.2 3.5.2 7 .2 10.5 0 106.9-80.9 230.2-228.8 230.2-45.4 0-87.7-13.4-123.3-36.3 6.3.7 12.7 1.1 19.2 1.1 37.7 0 72.4-12.9 99.9-34.6-35.2-.7-64.9-24-75.1-56.2 4.9.9 9.9 1.5 15.1 1.5 7.3 0 14.4-1 21.2-2.8-36.8-7.4-64.5-40.1-64.5-79.3v-1c10.8 6.1 23.2 9.7 36.4 10.1-21.6-14.5-35.8-39.3-35.8-67.3 0-14.8 4-28.7 10.9-40.7 39.7 48.9 98.9 81.1 165.8 84.5-1.4-5.9-2.1-12.1-2.1-18.4 0-44.7 36-80.9 80.4-80.9 23.1 0 44 9.8 58.7 25.5 18.3-3.6 35.5-10.4 51.1-19.6-6 18.9-18.8 34.7-35.4 44.8 16.3-2 31.8-6.3 46.2-12.7-10.8 15.9-24.4 30.2-40.1 41.6z"/></symbol></svg>